<svg width="440" height="370" viewBox="0 0 440 370" fill="none" xmlns="http://www.w3.org/2000/svg">
<path d="M17.81 3.75C15.15 0.44 10.67 -0.839999 6.69 0.570001C2.68 1.97 0 5.75 0 10V190C0 192.32 0.809999 194.57 2.28 196.36L142.28 366.36C144.18 368.66 147.01 370 150 370H290C293.84 370 297.35 367.79 299.01 364.34C300.68 360.87 300.21 356.76 297.8 353.75L17.81 3.75ZM433.36 10.59C429.4 9.13 424.94 10.39 422.26 13.68L242.26 233.68C239.81 236.67 239.31 240.8 240.96 244.3C242.62 247.77 246.14 250 250 250H390C393.04 250 395.91 248.62 397.81 246.25L437.81 196.25C439.23 194.47 440 192.28 440 190V20C440 15.77 437.34 12 433.36 10.59Z" fill="white"/>
</svg>
