<svg width="257" height="256" viewBox="0 0 257 256" fill="none" xmlns="http://www.w3.org/2000/svg">
<path fill-rule="evenodd" clip-rule="evenodd" d="M66 256H193V227C190.5 208 174.2 205 169 205L157.5 165.5C215.5 161.5 256.5 104.5 256.5 43C256.5 20 240.5 13.5 232 13.5H206V0H52V13H27C16.5 13 0 23.5 0.999962 43C4.17933 105 40 159.5 101 165.5L89.5 205C77.5 205 66 214.5 66 227V256ZM53.5 39C55.5 74.5 65.5 111.5 79 133.5C55.5 125.5 29 95.5 27 39H53.5ZM204 39C204 62.5 194 112.5 179.5 133.5C222 115 229.5 68 231 39H204Z" fill="white"/>
</svg>
