<svg width="413" height="470" viewBox="0 0 413 470" fill="none" xmlns="http://www.w3.org/2000/svg">
<g filter="url(#filter0_d_118_4986)">
<path d="M248.201 240.355V314.355C248.201 321.564 245.967 326.032 242.873 328.355C259.201 318.855 267.701 316.355 267.701 305.854V229.355C267.701 222.855 260.701 204.355 248.201 197.355L78.7007 99.8547C70.7007 95.3545 71.7007 92.3544 47.2007 108.325C50.0485 107.661 53.5866 108.208 57.7007 110.355L230.201 209.855C243.701 217.355 248.201 235.855 248.201 240.355Z" fill="#393939"/>
<path d="M127.201 166.355V174.355L131.886 177.04L154.247 189.853L161.784 194.172L171.701 199.855V191.855L166.813 189.054L163.789 187.321L141.707 174.667L127.201 166.355Z" fill="#393939"/>
<path d="M137.701 82.8545C137.908 84.5859 138.248 86.3939 138.701 88.2461C150.367 81.9872 177.201 69.2578 191.201 68.4119C192.796 66.176 194.393 63.9899 195.994 61.8545C176.701 64.3545 150.701 74.8545 137.701 82.8545Z" fill="#383838"/>
<path d="M302.701 7.35422C268.201 14.8537 230.201 69.8537 202.201 159.854L209.701 158.854C209.898 158.19 210.097 157.523 210.298 156.854C214.925 141.463 220.521 125.216 226.893 109.354C233.467 92.9888 240.868 77.0341 248.884 62.8545C249.841 61.1618 250.807 59.4943 251.781 57.8545C264.862 35.8345 279.459 18.7947 294.701 12.3545L299.701 10.3545C301.701 9.35449 305.701 9.35449 313.201 13.8545C344.662 31.8322 359.165 86.2198 361.193 93.8265L361.201 93.8545C357.701 90.3545 345.201 82.3545 340.701 80.8545C340.474 79.5908 340.167 78.2536 339.787 76.8545C319.701 65.3545 270.701 56.3545 251.781 57.8545C250.807 59.4943 249.841 61.1618 248.884 62.8545C273.701 60.8545 319.701 72.6045 336.201 80.8545C352.201 88.8545 402.701 115.854 377.201 158.354C364.701 177.354 337.201 191.204 317.701 198.354C302.701 203.854 294.201 206.354 294.201 213.854C294.201 210.354 305.701 206.854 317.701 202.854C341.701 194.854 378.701 175.354 386.701 145.354V140.354C386.701 122.854 384.701 108.854 364.201 91.8545L364.044 91.3755C355.015 63.7837 338.99 14.8111 302.701 7.35422Z" fill="#393937"/>
<path d="M134.201 431.855C125.701 425.537 126.701 413.355 117.701 404.855C107.642 395.355 79.7007 373.855 37.7007 371.355C21.7007 370.402 2.70068 358.848 1.20112 348.35V362.355C3.70068 377.855 24.7007 386.355 37.7007 387.355C78.2007 390.47 104.701 406.855 121.201 425.355C126.998 431.855 123.201 436.355 134.201 447.855C149.201 463.537 225.201 466.855 239.201 425.355V409.914C233.564 437.289 168.141 457.081 134.201 431.855Z" fill="#393939"/>
<path d="M83.2007 333.855C79.7007 354.855 27.7007 356.355 22.2007 333.855V339.355C30.2007 360.355 78.2007 359.355 83.2007 339.855V333.855Z" fill="#393939"/>
<path d="M122.201 331.355L106.201 321.855V324.355L122.201 334.355L126.201 331.855V328.855L122.201 331.355Z" fill="#393939"/>
<path d="M173.201 407.355C170.701 416.355 152.701 416.355 150.701 407.355V411.855C155.701 418.355 168.701 418.355 173.201 411.855V407.355Z" fill="#393939"/>
<path d="M116.201 377.855V374.855L111.201 377.355L94.2007 367.855V370.855L111.201 380.355L116.201 377.855Z" fill="#393939"/>
<path d="M177.201 386.855C176.201 394.855 156.701 394.855 155.201 386.855V391.355C160.701 397.855 172.701 397.855 177.201 391.355V386.855Z" fill="#393939"/>
<path d="M161.701 344.355V341.355L157.201 343.855L140.201 334.355V336.855L157.201 346.855L161.701 344.355Z" fill="#393939"/>
<path d="M179.201 362.855V359.855L174.701 362.855L157.701 353.355V355.855L174.701 365.855L179.201 362.855Z" fill="#393939"/>
<path d="M210.701 385.355C209.201 394.355 190.201 393.855 187.701 385.355V389.855C191.701 395.855 205.701 396.855 210.701 389.855V385.355Z" fill="#393939"/>
<path d="M214.201 407.355C213.701 415.855 192.201 415.855 191.201 407.355V411.855C194.701 417.855 211.201 418.355 214.201 411.855V407.355Z" fill="#393939"/>
<path fill-rule="evenodd" clip-rule="evenodd" d="M103.701 311.354C40.2007 295.855 -2.29876 323.85 1.20112 348.35C2.70068 358.848 21.7007 370.402 37.7007 371.355C79.7007 373.855 107.642 395.355 117.701 404.855C126.701 413.355 125.701 425.537 134.201 431.855C168.141 457.081 233.564 437.289 239.201 409.914C239.709 407.447 239.731 404.918 239.201 402.355C236.201 387.855 217.701 336.855 103.701 311.354ZM22.2007 333.855C22.2007 306.855 85.2007 311.855 83.2007 333.855V339.855C78.2007 359.355 30.2007 360.355 22.2007 339.355V333.855ZM106.201 321.855L110.201 319.355L126.201 328.855V331.855L122.201 334.355L106.201 324.355V321.855ZM145.201 331.855L161.701 341.355V344.355L157.201 346.855L140.201 336.855V334.355L145.201 331.855ZM162.701 350.355L179.201 359.855V362.855L174.701 365.855L157.701 355.855V353.355L162.701 350.355ZM99.7007 364.855L116.201 374.855V377.855L111.201 380.355L94.2007 370.855V367.855L99.7007 364.855ZM155.201 386.855C155.701 378.855 176.201 378.855 177.201 386.855V391.355C172.701 397.855 160.701 397.855 155.201 391.355V386.855ZM150.701 407.355C152.201 399.355 171.201 399.355 173.201 407.355V411.855C168.701 418.355 155.701 418.355 150.701 411.855V407.355ZM191.201 407.355C192.701 398.855 212.701 399.355 214.201 407.355V411.855C211.201 418.355 194.701 417.855 191.201 411.855V407.355ZM187.701 385.355C188.701 376.855 208.701 376.855 210.701 385.355V389.855C205.701 396.855 191.701 395.855 187.701 389.855V385.355Z" fill="#C3C8CC"/>
<path d="M22.2007 333.855C27.7007 356.355 79.7007 354.855 83.2007 333.855C85.2007 311.855 22.2007 306.855 22.2007 333.855Z" fill="#979A9F"/>
<path d="M110.201 319.355L106.201 321.855L122.201 331.355L126.201 328.855L110.201 319.355Z" fill="#979A9F"/>
<path d="M161.701 341.355L145.201 331.855L140.201 334.355L157.201 343.855L161.701 341.355Z" fill="#979A9F"/>
<path d="M179.201 359.855L162.701 350.355L157.701 353.355L174.701 362.855L179.201 359.855Z" fill="#979A9F"/>
<path fill-rule="evenodd" clip-rule="evenodd" d="M155.201 386.855C155.701 378.855 176.201 378.855 177.201 386.855C176.201 394.855 156.701 394.855 155.201 386.855ZM164.201 389.855L163.701 383.355L172.701 386.855L164.201 389.855Z" fill="#979A9F"/>
<path fill-rule="evenodd" clip-rule="evenodd" d="M187.701 385.355C188.701 376.855 208.701 376.855 210.701 385.355C209.201 394.355 190.201 393.855 187.701 385.355ZM201.701 389.855L193.201 384.355L205.201 382.855L201.701 389.855Z" fill="#979A9F"/>
<path fill-rule="evenodd" clip-rule="evenodd" d="M150.701 407.355C152.201 399.355 171.201 399.355 173.201 407.355C170.701 416.355 152.701 416.355 150.701 407.355ZM166.201 408.855L160.701 404.355L156.701 409.355L166.201 408.855Z" fill="#979A9F"/>
<path fill-rule="evenodd" clip-rule="evenodd" d="M191.201 407.355C192.701 398.855 212.701 399.355 214.201 407.355C213.701 415.855 192.201 415.855 191.201 407.355ZM196.201 408.355L207.201 404.855L205.201 411.355L196.201 408.355Z" fill="#979A9F"/>
<path d="M116.201 374.855L99.7007 364.855L94.2007 367.855L111.201 377.355L116.201 374.855Z" fill="#FADB5D"/>
<path d="M163.701 383.355L164.201 389.855L172.701 386.855L163.701 383.355Z" fill="#F9F9F7"/>
<path d="M193.201 384.355L201.701 389.855L205.201 382.855L193.201 384.355Z" fill="#F9F9F7"/>
<path d="M207.201 404.855L196.201 408.355L205.201 411.355L207.201 404.855Z" fill="#F9F9F7"/>
<path d="M160.701 404.355L166.201 408.855L156.701 409.355L160.701 404.355Z" fill="#F9F9F7"/>
<path fill-rule="evenodd" clip-rule="evenodd" d="M39.2007 121.355V195.855C39.2007 203.355 42.9007 220.055 57.7007 228.855L230.201 328.355C234.047 330.827 239.1 331.186 242.873 328.355C245.967 326.032 248.201 321.564 248.201 314.355V240.355C248.201 235.855 243.701 217.355 230.201 209.855L57.7007 110.355C53.5866 108.208 50.0485 107.661 47.2007 108.325C42.0881 109.517 39.2007 114.611 39.2007 121.355ZM47.2007 130.855V156.854V195.855C47.2007 198.501 47.8791 201.632 49.1001 204.854C51.8012 211.985 57.1581 219.567 63.7007 223.355L108.02 248.892L138.701 266.571L151.201 273.774L183.701 292.501L197.201 300.28L227.701 317.854C234.901 321.854 240.201 312.854 240.201 305.854V255.854V240.355C240.201 239.369 240.039 238.181 239.724 236.854C238.121 230.108 232.558 219.787 224.201 214.355L214.23 208.605L204.259 202.854L171.701 184.079L108.02 147.354L76.7007 129.293L61.2007 120.355C52.2007 115.855 47.2007 124.855 47.2007 130.855Z" fill="#979A9F"/>
<path d="M226.893 109.354C267.201 105.354 348.201 115.854 377.201 158.354C402.701 115.854 352.201 88.8545 336.201 80.8545C319.701 72.6045 273.701 60.8545 248.884 62.8545C240.868 77.0341 233.467 92.9888 226.893 109.354Z" fill="#979A9F"/>
<path d="M138.701 88.2461C141.905 101.37 150.752 116.72 158.201 122.854C168.854 102.436 179.95 84.1843 191.201 68.4119C177.201 69.2578 150.367 81.9872 138.701 88.2461Z" fill="#979A9F"/>
<path d="M158.201 122.854L153.701 131.854C164.701 143.354 186.201 154.354 202.201 159.854C230.201 69.8537 268.201 14.8537 302.701 7.35422C273.21 -10.9372 233.965 11.1831 195.994 61.8545C194.393 63.9899 192.796 66.176 191.201 68.4119C179.95 84.1843 168.854 102.436 158.201 122.854Z" fill="#BFC3C7"/>
<path d="M294.701 12.3545C313.405 23.5768 334.295 56.6639 339.787 76.8545C340.167 78.2536 340.474 79.5908 340.701 80.8545C345.201 82.3545 357.701 90.3545 361.201 93.8545L361.193 93.8265C359.165 86.2198 344.662 31.8322 313.201 13.8545C305.701 9.35449 301.701 9.35449 299.701 10.3545L294.701 12.3545Z" fill="#979A9F"/>
<path d="M137.701 82.8545C136.201 70.3542 128.701 71.8542 125.201 73.8545L104.634 85.3545C110.201 83.3545 115.459 88.6027 118.201 93.3545C128.008 110.354 135.201 127.854 171.701 151.354C208.201 171.854 228.201 176.854 252.201 176.854C272.701 176.854 287.201 188.854 287.201 208.354V287.854C287.201 292.354 284.501 297.454 281.701 298.854L311.701 283.854C315.701 281.354 317.701 276.854 317.701 272.854V250.354L302.701 255.854C299.701 256.854 294.201 256.854 294.201 250.854V213.854C294.201 206.354 302.701 203.854 317.701 198.354C316.701 183.854 307.201 166.584 288.701 167.354C279.101 167.754 264.201 168.354 254.201 168.354C235.701 167.354 218.701 161.354 210.298 156.854C210.097 157.523 209.898 158.19 209.701 158.854L202.201 159.854C186.201 154.354 164.701 143.354 153.701 131.854L158.201 122.854C150.752 116.72 141.905 101.37 138.701 88.2461C138.248 86.3939 137.908 84.5859 137.701 82.8545Z" fill="#DBE2EA"/>
<path d="M267.701 229.355V305.854L281.701 298.854C284.501 297.454 287.201 292.354 287.201 287.854V208.354C287.201 188.854 272.701 176.854 252.201 176.854C228.201 176.854 208.201 171.854 171.701 151.354C135.201 127.854 128.008 110.354 118.201 93.3545C115.459 88.6027 110.201 83.3545 104.634 85.3545L78.7007 99.8547L248.201 197.355C260.701 204.355 267.701 222.855 267.701 229.355Z" fill="#C3C8CC"/>
<path d="M302.701 255.854L317.701 250.354C367.201 233.854 386.701 203.354 386.701 186.854V145.354C378.701 175.354 341.701 194.854 317.701 202.854C305.701 206.854 294.201 210.354 294.201 213.854V250.854C294.201 256.854 299.701 256.854 302.701 255.854Z" fill="#C3C8CC"/>
<path fill-rule="evenodd" clip-rule="evenodd" d="M47.2007 130.855C47.2007 124.855 52.2007 115.855 61.2007 120.355L76.7007 129.293L108.02 147.354L171.701 184.079L204.259 202.854L214.23 208.605L224.201 214.355C232.558 219.787 238.121 230.108 239.724 236.854C240.039 238.181 240.201 239.369 240.201 240.355V255.854V305.854C240.201 312.854 234.901 321.854 227.701 317.854L197.201 300.28L183.701 292.501L151.201 273.774L138.701 266.571L108.02 248.892L63.7007 223.355C57.1581 219.567 51.8012 211.985 49.1001 204.854C47.8791 201.632 47.2007 198.501 47.2007 195.855V156.854V130.855ZM127.201 174.355V166.355L141.707 174.667L163.789 187.321L166.813 189.054L171.701 191.855V199.855L161.784 194.172L154.247 189.853L131.886 177.04L127.201 174.355Z" fill="url(#paint0_linear_118_4986)"/>
<path d="M1.20112 348.35L1.69609 348.28L1.20112 348.35ZM103.701 311.354L103.582 311.84L103.591 311.842L103.701 311.354ZM239.201 402.355L238.711 402.456L239.201 402.355ZM134.201 431.855L134.499 431.453L134.499 431.453L134.201 431.855ZM117.701 404.855L118.044 404.491L117.701 404.855ZM37.7007 371.355L37.671 371.854L37.7007 371.355ZM1.20112 362.355H0.701115V362.395L0.707492 362.434L1.20112 362.355ZM37.7007 387.355L37.6623 387.853L37.7007 387.355ZM121.201 425.355L120.828 425.688L121.201 425.355ZM134.201 447.855L133.839 448.2L134.201 447.855ZM239.201 425.355L239.674 425.515L239.701 425.437V425.355H239.201ZM239.201 409.914L238.711 409.814L239.201 409.914ZM22.2007 339.355H21.7007V339.447L21.7334 339.533L22.2007 339.355ZM83.2007 339.855L83.685 339.979L83.7007 339.918V339.855H83.2007ZM110.201 319.355L110.456 318.925L110.194 318.769L109.936 318.931L110.201 319.355ZM106.201 321.855L105.936 321.431L105.701 321.577V321.855H106.201ZM122.201 331.355L121.945 331.785L122.207 331.94L122.466 331.779L122.201 331.355ZM126.201 328.855H126.701V328.57L126.456 328.425L126.201 328.855ZM106.201 324.355H105.701V324.632L105.936 324.779L106.201 324.355ZM122.201 334.355L121.936 334.779L122.201 334.944L122.466 334.779L122.201 334.355ZM126.201 331.855L126.466 332.279L126.701 332.132V331.855H126.201ZM145.201 331.855L145.45 331.421L145.217 331.287L144.977 331.407L145.201 331.855ZM161.701 341.355H162.201V341.066L161.95 340.921L161.701 341.355ZM161.701 344.355L161.944 344.792L162.201 344.649V344.355H161.701ZM157.201 346.855L156.947 347.286L157.194 347.431L157.444 347.292L157.201 346.855ZM140.201 336.855H139.701V337.141L139.947 337.286L140.201 336.855ZM140.201 334.355L139.977 333.907L139.701 334.046V334.355H140.201ZM157.201 343.855L156.957 344.291L157.2 344.427L157.444 344.292L157.201 343.855ZM162.701 350.355L162.95 349.921L162.695 349.775L162.443 349.926L162.701 350.355ZM179.201 359.855H179.701V359.566L179.45 359.421L179.201 359.855ZM179.201 362.855L179.478 363.271L179.701 363.122V362.855H179.201ZM174.701 365.855L174.447 366.286L174.717 366.445L174.978 366.271L174.701 365.855ZM157.701 355.855H157.201V356.141L157.447 356.286L157.701 355.855ZM157.701 353.355L157.443 352.926L157.201 353.072V353.355H157.701ZM174.701 362.855L174.457 363.291L174.724 363.44L174.978 363.271L174.701 362.855ZM99.7007 364.855L99.9598 364.427L99.7138 364.278L99.4613 364.416L99.7007 364.855ZM116.201 374.855H116.701V374.573L116.46 374.427L116.201 374.855ZM116.201 377.855L116.424 378.302L116.701 378.164V377.855H116.201ZM111.201 380.355L110.957 380.791L111.188 380.92L111.424 380.802L111.201 380.355ZM94.2007 370.855H93.7007V371.148L93.9568 371.291L94.2007 370.855ZM94.2007 367.855L93.9613 367.416L93.7007 367.558V367.855H94.2007ZM111.201 377.355L110.957 377.791L111.188 377.92L111.424 377.802L111.201 377.355ZM163.701 383.355L163.882 382.889L163.141 382.601L163.202 383.393L163.701 383.355ZM164.201 389.855L163.702 389.893L163.752 390.543L164.367 390.326L164.201 389.855ZM172.701 386.855L172.867 387.326L174.139 386.877L172.882 386.389L172.701 386.855ZM155.201 386.855L154.702 386.824L154.701 386.839V386.855H155.201ZM177.201 386.855H177.701V386.824L177.697 386.793L177.201 386.855ZM155.201 391.355H154.701V391.538L154.819 391.678L155.201 391.355ZM177.201 391.355L177.612 391.639L177.701 391.511V391.355H177.201ZM160.701 404.355L161.017 403.968L160.626 403.648L160.31 404.042L160.701 404.355ZM166.201 408.855L166.227 409.354L167.518 409.286L166.517 408.468L166.201 408.855ZM156.701 409.355L156.31 409.042L155.614 409.913L156.727 409.854L156.701 409.355ZM150.701 407.355L150.209 407.263L150.201 407.308V407.355H150.701ZM173.201 407.355H173.701V407.293L173.686 407.233L173.201 407.355ZM150.701 411.855H150.201V412.025L150.304 412.16L150.701 411.855ZM173.201 411.855L173.612 412.139L173.701 412.011V411.855H173.201ZM207.201 404.855L207.679 405.002L207.96 404.089L207.049 404.378L207.201 404.855ZM196.201 408.355L196.049 407.878L194.586 408.344L196.043 408.829L196.201 408.355ZM205.201 411.355L205.043 411.829L205.528 411.991L205.679 411.502L205.201 411.355ZM191.201 407.355L190.708 407.268L190.701 407.311V407.355H191.201ZM214.201 407.355H214.701V407.308L214.692 407.263L214.201 407.355ZM191.201 411.855H190.701V411.99L190.769 412.107L191.201 411.855ZM214.201 411.855L214.655 412.064L214.701 411.965V411.855H214.201ZM193.201 384.355L193.139 383.859L191.777 384.029L192.929 384.775L193.201 384.355ZM201.701 389.855L201.429 390.275L201.898 390.578L202.148 390.078L201.701 389.855ZM205.201 382.855L205.648 383.078L206.066 382.243L205.139 382.359L205.201 382.855ZM187.701 385.355L187.204 385.296L187.201 385.325V385.355H187.701ZM210.701 385.355H211.201V385.297L211.187 385.24L210.701 385.355ZM187.701 389.855H187.201V390.006L187.285 390.132L187.701 389.855ZM210.701 389.855L211.108 390.145L211.201 390.015V389.855H210.701ZM57.7007 228.855L57.4451 229.285L57.4509 229.288L57.7007 228.855ZM230.201 328.355L230.471 327.934L230.461 327.928L230.451 327.922L230.201 328.355ZM230.201 209.855L229.951 210.288L229.958 210.292L230.201 209.855ZM57.7007 110.355L57.9505 109.922L57.9414 109.916L57.932 109.912L57.7007 110.355ZM61.2007 120.355L61.4505 119.922L61.4376 119.914L61.4243 119.907L61.2007 120.355ZM224.201 214.355L224.473 213.935L224.462 213.928L224.45 213.922L224.201 214.355ZM227.701 317.854L227.451 318.288L227.458 318.292L227.701 317.854ZM63.7007 223.355L63.4502 223.787L63.4511 223.788L63.7007 223.355ZM127.201 166.355L127.449 165.921L126.701 165.492V166.355H127.201ZM127.201 174.355H126.701V174.644L126.952 174.789L127.201 174.355ZM171.701 199.855L171.452 200.289L172.201 200.717V199.855H171.701ZM171.701 191.855H172.201V191.565L171.949 191.421L171.701 191.855ZM248.201 197.355L247.951 197.788L247.956 197.791L248.201 197.355ZM47.2007 108.325L47.3142 108.812L47.2007 108.325ZM125.201 73.8545L125.445 74.2909L125.449 74.2886L125.201 73.8545ZM137.701 82.8545L137.204 82.914L137.204 82.914L137.701 82.8545ZM153.701 131.854L153.253 131.631L153.096 131.945L153.339 132.2L153.701 131.854ZM202.201 159.854L202.038 160.327L202.15 160.365L202.267 160.35L202.201 159.854ZM191.201 68.4119L191.608 68.7023L191.201 68.4119ZM118.201 93.3545L118.634 93.1046L118.201 93.3545ZM171.701 151.354L171.43 151.775L171.443 151.783L171.456 151.79L171.701 151.354ZM311.701 283.854L311.924 284.302L311.946 284.291L311.966 284.278L311.701 283.854ZM317.701 250.354L317.543 249.88L317.536 249.882L317.529 249.885L317.701 250.354ZM209.701 158.854L209.767 159.35L210.088 159.307L210.18 158.997L209.701 158.854ZM294.701 12.3545L294.515 11.8902L294.506 11.8939L294.701 12.3545ZM254.201 168.354L254.174 168.854L254.187 168.854H254.201V168.354ZM288.701 167.354L288.68 166.855L288.701 167.354ZM317.701 198.354L317.873 198.824L317.701 198.354ZM302.701 255.854L302.859 256.329L302.866 256.326L302.873 256.324L302.701 255.854ZM364.201 91.8545L363.725 92.01L363.77 92.1472L363.882 92.2394L364.201 91.8545ZM377.201 158.354L377.618 158.629L377.624 158.621L377.629 158.612L377.201 158.354ZM226.893 109.354L226.429 109.168L226.893 109.354ZM340.701 80.8545L340.209 80.9428L340.261 81.235L340.543 81.3288L340.701 80.8545ZM339.787 76.8545L340.269 76.7233L340.269 76.7233L339.787 76.8545ZM299.701 10.3545L299.886 10.8187L299.906 10.811L299.924 10.8017L299.701 10.3545ZM313.201 13.8545L312.943 14.2833L312.953 14.2886L313.201 13.8545ZM361.201 93.8545L360.847 94.208L362.163 95.5244L361.684 93.7257L361.201 93.8545ZM361.193 93.8265L360.71 93.9553L360.71 93.9553L361.193 93.8265ZM364.044 91.3755L363.569 91.531L363.569 91.531L364.044 91.3755ZM76.7007 129.293L76.4509 129.726L76.4509 129.726L76.7007 129.293ZM108.02 147.354L108.269 146.921L108.269 146.921L108.02 147.354ZM49.1001 204.854L48.6325 205.032L49.1001 204.854ZM108.02 248.892L107.77 249.325L108.02 248.892ZM171.701 184.079L171.451 184.512L171.451 184.512L171.701 184.079ZM204.259 202.854L204.509 202.421L204.509 202.421L204.259 202.854ZM138.701 266.571L138.95 266.138L138.701 266.571ZM151.201 273.774L151.45 273.341L151.45 273.341L151.201 273.774ZM239.724 236.854L239.237 236.97L239.724 236.854ZM183.701 292.501L183.95 292.068L183.95 292.068L183.701 292.501ZM197.201 300.28L196.951 300.713L196.951 300.713L197.201 300.28ZM166.813 189.054L167.061 188.62L167.061 188.62L166.813 189.054ZM161.784 194.172L161.535 194.606L161.535 194.606L161.784 194.172ZM154.247 189.853L154.495 189.419L154.495 189.419L154.247 189.853ZM131.886 177.04L131.637 177.473L131.637 177.473L131.886 177.04ZM141.707 174.667L141.458 175.101L141.458 175.101L141.707 174.667ZM163.789 187.321L163.541 187.755L163.541 187.755L163.789 187.321ZM1.69609 348.28C-0.00623443 336.363 9.48202 323.398 27.5304 315.309C45.5374 307.238 71.921 304.112 103.582 311.84L103.819 310.869C71.9802 303.097 45.3642 306.219 27.1214 314.396C8.92011 322.554 -1.09141 335.838 0.70614 348.421L1.69609 348.28ZM103.591 311.842C160.529 324.579 193.567 343.671 212.737 361.347C231.902 379.019 237.23 395.297 238.711 402.456L239.69 402.253C238.171 394.912 232.749 378.44 213.415 360.612C194.084 342.788 160.872 323.631 103.81 310.867L103.591 311.842ZM134.499 431.453C130.38 428.392 128.548 423.906 126.603 418.989C124.671 414.104 122.637 408.829 118.044 404.491L117.357 405.218C121.765 409.381 123.731 414.446 125.673 419.357C127.603 424.236 129.521 429 133.902 432.256L134.499 431.453ZM118.044 404.491C107.935 394.944 79.8884 373.365 37.7304 370.856L37.671 371.854C79.513 374.344 107.349 395.765 117.357 405.218L118.044 404.491ZM37.7304 370.856C29.8269 370.385 21.1564 367.291 14.2775 363.008C10.8403 360.867 7.86601 358.44 5.66385 355.911C3.45803 353.378 2.0525 350.775 1.69609 348.28L0.70614 348.421C1.09951 351.175 2.63132 353.952 4.90976 356.568C7.19185 359.188 10.2488 361.677 13.7489 363.856C20.7449 368.213 29.5745 371.372 37.671 371.854L37.7304 370.856ZM0.701115 348.35V362.355H1.70112V348.35H0.701115ZM0.707492 362.434C1.9915 370.396 8.01437 376.502 15.2615 380.724C22.5164 384.951 31.0897 387.348 37.6623 387.853L37.739 386.856C31.3116 386.362 22.885 384.008 15.7649 379.86C8.63722 375.707 2.9103 369.813 1.69474 362.275L0.707492 362.434ZM37.6623 387.853C78.0338 390.959 104.414 407.284 120.828 425.688L121.574 425.022C104.988 406.425 78.3675 389.981 37.739 386.856L37.6623 387.853ZM120.828 425.688C123.641 428.842 124.109 431.465 125.276 434.891C126.449 438.331 128.286 442.395 133.839 448.2L134.562 447.509C129.115 441.815 127.351 437.879 126.223 434.568C125.09 431.244 124.557 428.367 121.574 425.022L120.828 425.688ZM133.839 448.2C137.7 452.237 145.393 455.409 154.869 457.281C164.373 459.159 175.768 459.749 187.128 458.545C209.806 456.142 232.577 446.554 239.674 425.515L238.727 425.195C231.825 445.655 209.595 455.159 187.023 457.551C175.759 458.744 164.466 458.158 155.063 456.3C145.633 454.437 138.201 451.313 134.562 447.509L133.839 448.2ZM238.711 402.456C239.227 404.951 239.206 407.411 238.711 409.814L239.69 410.015C240.212 407.483 240.235 404.885 239.69 402.253L238.711 402.456ZM238.711 409.814C237.338 416.484 232.303 422.758 224.899 428.031C217.504 433.299 207.798 437.528 197.196 440.124C175.971 445.321 151.304 443.944 134.499 431.453L133.902 432.256C151.038 444.992 176.052 446.331 197.434 441.095C208.134 438.475 217.962 434.2 225.48 428.846C232.989 423.497 238.246 417.032 239.69 410.015L238.711 409.814ZM239.701 425.355V409.914H238.701V425.355H239.701ZM21.715 333.973C23.1374 339.793 27.5587 344.017 33.3464 346.752C39.1337 349.487 46.3378 350.762 53.4573 350.667C60.5765 350.573 67.6549 349.109 73.1909 346.325C78.7235 343.543 82.7829 339.403 83.6939 333.937L82.7075 333.772C81.8685 338.806 78.1153 342.729 72.7417 345.431C67.3714 348.132 60.4498 349.574 53.444 349.667C46.4386 349.76 39.3926 348.503 33.7737 345.848C28.1552 343.193 24.0139 339.167 22.6864 333.736L21.715 333.973ZM22.7007 333.855C22.7007 327.345 26.4807 322.741 32.2396 319.816C38.0147 316.882 45.7348 315.669 53.4305 315.979C61.1249 316.289 68.7305 318.12 74.2694 321.213C79.8167 324.31 83.1768 328.595 82.7027 333.809L83.6986 333.9C84.2246 328.114 80.4597 323.524 74.7569 320.34C69.0459 317.151 61.2764 315.295 53.4708 314.98C45.6666 314.665 37.7617 315.889 31.7867 318.924C25.7957 321.968 21.7007 326.865 21.7007 333.855H22.7007ZM21.7007 333.855V339.355H22.7007V333.855H21.7007ZM21.7334 339.533C23.7959 344.946 28.4207 348.902 34.1994 351.491C39.9799 354.08 46.9592 355.324 53.828 355.292C60.6959 355.261 67.4898 353.954 72.898 351.409C78.3017 348.865 82.3843 345.052 83.685 339.979L82.7164 339.73C81.517 344.408 77.7247 348.032 72.4721 350.504C67.224 352.974 60.5805 354.261 53.8234 354.292C47.0672 354.323 40.234 353.098 34.6082 350.578C28.9806 348.057 24.6055 344.263 22.6679 339.177L21.7334 339.533ZM83.7007 339.855V333.855H82.7007V339.855H83.7007ZM109.936 318.931L105.936 321.431L106.466 322.279L110.466 319.779L109.936 318.931ZM105.945 322.285L121.945 331.785L122.456 330.925L106.456 321.425L105.945 322.285ZM122.466 331.779L126.466 329.279L125.936 328.431L121.936 330.931L122.466 331.779ZM126.456 328.425L110.456 318.925L109.945 319.785L125.945 329.285L126.456 328.425ZM105.701 321.855V324.355H106.701V321.855H105.701ZM105.936 324.779L121.936 334.779L122.466 333.931L106.466 323.931L105.936 324.779ZM122.466 334.779L126.466 332.279L125.936 331.431L121.936 333.931L122.466 334.779ZM126.701 331.855V328.855H125.701V331.855H126.701ZM144.951 332.288L161.451 341.788L161.95 340.921L145.45 331.421L144.951 332.288ZM161.201 341.355V344.355H162.201V341.355H161.201ZM161.458 343.918L156.958 346.418L157.444 347.292L161.944 344.792L161.458 343.918ZM157.454 346.424L140.454 336.424L139.947 337.286L156.947 347.286L157.454 346.424ZM140.701 336.855V334.355H139.701V336.855H140.701ZM140.424 334.802L145.424 332.302L144.977 331.407L139.977 333.907L140.424 334.802ZM139.957 334.791L156.957 344.291L157.445 343.418L140.445 333.918L139.957 334.791ZM157.444 344.292L161.944 341.792L161.458 340.918L156.958 343.418L157.444 344.292ZM162.451 350.788L178.951 360.288L179.45 359.421L162.95 349.921L162.451 350.788ZM178.701 359.855V362.855H179.701V359.855H178.701ZM178.923 362.439L174.423 365.439L174.978 366.271L179.478 363.271L178.923 362.439ZM174.954 365.424L157.954 355.424L157.447 356.286L174.447 366.286L174.954 365.424ZM158.201 355.855V353.355H157.201V355.855H158.201ZM157.958 353.783L162.958 350.783L162.443 349.926L157.443 352.926L157.958 353.783ZM157.457 353.791L174.457 363.291L174.945 362.418L157.945 352.918L157.457 353.791ZM174.978 363.271L179.478 360.271L178.923 359.439L174.423 362.439L174.978 363.271ZM99.4415 365.282L115.942 375.282L116.46 374.427L99.9598 364.427L99.4415 365.282ZM115.701 374.855V377.855H116.701V374.855H115.701ZM115.977 377.408L110.977 379.908L111.424 380.802L116.424 378.302L115.977 377.408ZM111.445 379.918L94.4446 370.418L93.9568 371.291L110.957 380.791L111.445 379.918ZM94.7007 370.855V367.855H93.7007V370.855H94.7007ZM94.4401 368.294L99.9401 365.294L99.4613 364.416L93.9613 367.416L94.4401 368.294ZM93.9568 368.291L110.957 377.791L111.445 376.918L94.4446 367.418L93.9568 368.291ZM111.424 377.802L116.424 375.302L115.977 374.408L110.977 376.908L111.424 377.802ZM163.202 383.393L163.702 389.893L164.699 389.816L164.199 383.316L163.202 383.393ZM164.367 390.326L172.867 387.326L172.534 386.383L164.034 389.383L164.367 390.326ZM172.882 386.389L163.882 382.889L163.519 383.821L172.519 387.321L172.882 386.389ZM155.7 386.886C155.809 385.133 157.011 383.759 158.931 382.802C160.851 381.846 163.41 381.355 166.013 381.355C168.615 381.355 171.208 381.846 173.194 382.805C175.184 383.766 176.484 385.151 176.705 386.917L177.697 386.793C177.417 384.558 175.78 382.943 173.629 381.905C171.474 380.864 168.724 380.355 166.013 380.355C163.303 380.355 160.581 380.863 158.486 381.907C156.391 382.951 154.842 384.577 154.702 386.824L155.7 386.886ZM154.709 386.947C155.124 389.159 156.776 390.765 158.912 391.804C161.05 392.845 163.738 393.355 166.388 393.355C169.038 393.355 171.697 392.845 173.777 391.802C175.856 390.758 177.419 389.141 177.697 386.917L176.705 386.793C176.483 388.568 175.233 389.952 173.328 390.908C171.423 391.864 168.926 392.355 166.388 392.355C163.851 392.355 161.32 391.865 159.349 390.905C157.376 389.945 156.027 388.551 155.692 386.763L154.709 386.947ZM154.701 386.855V391.355H155.701V386.855H154.701ZM154.819 391.678C157.683 395.063 162.212 396.73 166.576 396.73C170.936 396.73 175.241 395.063 177.612 391.639L176.79 391.07C174.66 394.146 170.716 395.73 166.576 395.73C162.44 395.73 158.218 394.147 155.582 391.032L154.819 391.678ZM177.701 391.355V386.855H176.701V391.355H177.701ZM160.384 404.742L165.884 409.242L166.517 408.468L161.017 403.968L160.384 404.742ZM166.174 408.355L156.674 408.855L156.727 409.854L166.227 409.354L166.174 408.355ZM157.091 409.667L161.091 404.667L160.31 404.042L156.31 409.042L157.091 409.667ZM151.192 407.447C151.528 405.654 152.851 404.261 154.789 403.303C156.728 402.345 159.226 401.855 161.763 401.855C164.3 401.855 166.832 402.345 168.836 403.306C170.843 404.268 172.264 405.671 172.716 407.476L173.686 407.233C173.137 405.039 171.434 403.442 169.268 402.404C167.101 401.365 164.414 400.855 161.763 400.855C159.113 400.855 156.455 401.365 154.346 402.406C152.238 403.448 150.623 405.055 150.209 407.263L151.192 407.447ZM150.213 407.463C150.75 409.883 152.362 411.676 154.464 412.853C156.561 414.028 159.164 414.605 161.763 414.605C166.911 414.605 172.342 412.315 173.682 407.489L172.719 407.221C171.56 411.394 166.741 413.605 161.763 413.605C159.3 413.605 156.872 413.056 154.953 411.981C153.039 410.909 151.651 409.327 151.189 407.246L150.213 407.463ZM150.201 407.355V411.855H151.201V407.355H150.201ZM150.304 412.16C152.929 415.571 157.601 417.23 162.138 417.23C166.671 417.23 171.235 415.572 173.612 412.139L172.79 411.57C170.666 414.637 166.48 416.23 162.138 416.23C157.8 416.23 153.473 414.638 151.097 411.55L150.304 412.16ZM173.701 411.855V407.355H172.701V411.855H173.701ZM207.049 404.378L196.049 407.878L196.352 408.831L207.352 405.331L207.049 404.378ZM196.043 408.829L205.043 411.829L205.359 410.88L196.359 407.88L196.043 408.829ZM205.679 411.502L207.679 405.002L206.723 404.708L204.723 411.208L205.679 411.502ZM191.693 407.442C192.031 405.527 193.414 404.074 195.435 403.094C197.457 402.112 200.063 401.637 202.695 401.667C205.326 401.698 207.936 402.234 209.964 403.233C211.997 404.234 213.374 405.661 213.709 407.447L214.692 407.263C214.277 405.049 212.592 403.413 210.406 402.336C208.215 401.257 205.451 400.699 202.706 400.667C199.963 400.635 197.194 401.128 194.998 402.194C192.8 403.26 191.12 404.932 190.708 407.268L191.693 407.442ZM190.704 407.413C190.982 409.771 192.679 411.482 194.926 412.585C197.175 413.689 200.052 414.23 202.888 414.23C205.724 414.23 208.572 413.689 210.762 412.582C212.953 411.475 214.56 409.753 214.7 407.384L213.702 407.325C213.591 409.206 212.324 410.672 210.311 411.69C208.298 412.707 205.615 413.23 202.888 413.23C200.162 413.23 197.445 412.708 195.366 411.687C193.285 410.665 191.92 409.188 191.697 407.296L190.704 407.413ZM190.701 407.355V411.855H191.701V407.355H190.701ZM190.769 412.107C191.725 413.746 193.533 414.959 195.672 415.768C197.821 416.581 200.365 417.01 202.882 417.042C205.398 417.074 207.916 416.709 210.012 415.908C212.101 415.109 213.829 413.853 214.655 412.064L213.747 411.645C213.072 413.106 211.613 414.225 209.655 414.974C207.704 415.719 205.316 416.073 202.895 416.042C200.474 416.012 198.049 415.598 196.026 414.832C193.993 414.063 192.426 412.963 191.633 411.603L190.769 412.107ZM214.701 411.855V407.355H213.701V411.855H214.701ZM192.929 384.775L201.429 390.275L201.972 389.435L193.472 383.935L192.929 384.775ZM202.148 390.078L205.648 383.078L204.753 382.631L201.253 389.631L202.148 390.078ZM205.139 382.359L193.139 383.859L193.263 384.851L205.263 383.351L205.139 382.359ZM188.197 385.413C188.422 383.506 189.71 382.032 191.665 381.017C193.623 380.001 196.196 379.48 198.826 379.48C201.454 379.48 204.095 380 206.184 381.023C208.275 382.046 209.76 383.54 210.214 385.469L211.187 385.24C210.641 382.92 208.876 381.226 206.624 380.124C204.369 379.022 201.572 378.48 198.826 378.48C196.081 378.48 193.34 379.021 191.205 380.13C189.066 381.24 187.48 382.953 187.204 385.296L188.197 385.413ZM187.221 385.496C187.897 387.793 189.676 389.51 191.911 390.652C194.147 391.794 196.881 392.385 199.57 392.417C202.257 392.449 204.938 391.923 207.061 390.788C209.192 389.649 210.787 387.878 211.194 385.437L210.207 385.273C209.864 387.332 208.522 388.873 206.59 389.906C204.651 390.943 202.145 391.448 199.582 391.417C197.02 391.387 194.442 390.822 192.366 389.761C190.288 388.7 188.755 387.166 188.18 385.214L187.221 385.496ZM187.201 385.355V389.855H188.201V385.355H187.201ZM187.285 390.132C189.414 393.325 194.11 395.102 198.812 395.23C203.525 395.357 208.473 393.834 211.108 390.145L210.294 389.564C207.929 392.875 203.377 394.353 198.839 394.23C194.291 394.107 189.988 392.384 188.117 389.577L187.285 390.132ZM211.201 389.855V385.355H210.201V389.855H211.201ZM38.7007 121.355V195.855H39.7007V121.355H38.7007ZM38.7007 195.855C38.7007 203.451 42.4351 220.36 57.4451 229.285L57.9562 228.425C43.3662 219.75 39.7007 203.259 39.7007 195.855H38.7007ZM57.4509 229.288L229.951 328.788L230.451 327.922L57.9505 228.422L57.4509 229.288ZM248.701 314.355V240.355H247.701V314.355H248.701ZM248.701 240.355C248.701 238.011 247.55 232.189 244.718 226.021C241.882 219.845 237.323 213.24 230.444 209.418L229.958 210.292C236.579 213.97 241.02 220.364 243.809 226.438C246.602 232.521 247.701 238.198 247.701 240.355H248.701ZM230.451 209.422L57.9505 109.922L57.4509 110.788L229.951 210.288L230.451 209.422ZM47.7007 130.855C47.7007 127.966 48.9123 124.347 51.1838 122.016C52.312 120.858 53.6899 120.029 55.3028 119.746C56.914 119.462 58.8055 119.716 60.9771 120.802L61.4243 119.907C59.0958 118.743 56.9874 118.434 55.1298 118.761C53.274 119.087 51.7143 120.039 50.4676 121.318C47.989 123.862 46.7007 127.743 46.7007 130.855H47.7007ZM239.701 305.854C239.701 309.25 238.409 313.132 236.269 315.656C235.203 316.914 233.949 317.809 232.566 318.167C231.194 318.522 229.644 318.362 227.944 317.417L227.458 318.292C229.357 319.347 231.17 319.562 232.817 319.135C234.452 318.712 235.873 317.67 237.032 316.303C239.342 313.577 240.701 309.459 240.701 305.854H239.701ZM126.701 166.355V174.355H127.701V166.355H126.701ZM172.201 199.855V191.855H171.201V199.855H172.201ZM229.93 328.775C233.912 331.335 239.198 331.738 243.173 328.755L242.573 327.955C239.002 330.635 234.181 330.319 230.471 327.934L229.93 328.775ZM243.173 328.755C246.435 326.307 248.701 321.661 248.701 314.355H247.701C247.701 321.466 245.5 325.758 242.573 327.955L243.173 328.755ZM243.125 328.787C247.202 326.414 250.783 324.483 253.885 322.744C256.979 321.009 259.598 319.464 261.71 317.88C263.825 316.293 265.455 314.65 266.553 312.71C267.654 310.764 268.201 308.552 268.201 305.854H267.201C267.201 308.407 266.685 310.445 265.682 312.218C264.676 313.996 263.161 315.541 261.11 317.08C259.056 318.62 256.489 320.137 253.396 321.872C250.312 323.601 246.708 325.545 242.622 327.922L243.125 328.787ZM268.201 305.854V229.355H267.201V305.854H268.201ZM268.201 229.355C268.201 225.989 266.41 219.655 263.081 213.31C259.746 206.955 254.814 200.485 248.445 196.918L247.956 197.791C254.087 201.224 258.905 207.504 262.195 213.775C265.491 220.055 267.201 226.221 267.201 229.355H268.201ZM248.45 196.921L78.95 99.4213L78.4514 100.288L247.951 197.788L248.45 196.921ZM57.932 109.912C53.7495 107.729 50.087 107.139 47.0872 107.838L47.3142 108.812C50.0099 108.184 53.4237 108.687 57.4694 110.798L57.932 109.912ZM47.0872 107.838C41.6497 109.106 38.7007 114.498 38.7007 121.355H39.7007C39.7007 114.724 42.5266 109.928 47.3142 108.812L47.0872 107.838ZM78.9458 99.4189C77.9562 98.8622 77.1076 98.3298 76.3163 97.8452C75.5304 97.3638 74.7965 96.9265 74.0618 96.5813C72.566 95.8783 71.0705 95.5588 69.0499 95.9212C67.0621 96.2777 64.5826 97.2914 61.0943 99.1921C57.5994 101.096 53.0545 103.913 46.9276 107.906L47.4737 108.744C53.5969 104.753 58.1144 101.955 61.5727 100.07C65.0375 98.1824 67.4018 97.2328 69.2265 96.9055C71.0184 96.5841 72.3042 96.8602 73.6365 97.4863C74.3158 97.8056 75.0077 98.2163 75.794 98.6979C76.575 99.1763 77.4452 99.7221 78.4555 100.29L78.9458 99.4189ZM125.449 74.2886C127.143 73.3202 129.728 72.5234 132.025 73.3849C134.273 74.2279 136.465 76.7499 137.204 82.914L138.197 82.7949C137.437 76.4588 135.128 73.4807 132.376 72.4486C129.674 71.4351 126.758 72.3884 124.953 73.4204L125.449 74.2886ZM157.753 122.631L153.253 131.631L154.148 132.078L158.648 123.078L157.753 122.631ZM153.339 132.2C164.42 143.784 186.007 154.816 202.038 160.327L202.363 159.381C186.394 153.892 164.982 142.925 154.062 131.509L153.339 132.2ZM202.678 160.003C216.669 115.032 233.151 78.8295 250.429 52.9439C267.721 27.0378 285.751 11.5503 302.807 7.84281L302.594 6.86563C285.15 10.6577 266.931 26.4199 249.597 52.3888C232.25 78.3783 215.732 114.676 201.723 159.706L202.678 160.003ZM137.204 82.914C137.415 84.6683 137.759 86.4961 138.215 88.3647L139.186 88.1275C138.738 86.2916 138.402 84.5036 138.197 82.7949L137.204 82.914ZM138.215 88.3647C139.83 94.9804 142.863 102.142 146.424 108.418C149.981 114.687 154.091 120.118 157.883 123.24L158.519 122.468C154.861 119.457 150.824 114.145 147.294 107.925C143.769 101.712 140.776 94.6361 139.186 88.1275L138.215 88.3647ZM158.644 123.086C169.288 102.684 180.373 84.4532 191.608 68.7023L190.794 68.1216C179.528 83.9154 168.42 102.187 157.757 122.623L158.644 123.086ZM138.937 88.6867C144.758 85.564 154.367 80.8246 164.266 76.7617C174.183 72.6909 184.322 69.3284 191.231 68.911L191.171 67.9128C184.079 68.3413 173.802 71.7665 163.886 75.8366C153.951 79.9145 144.31 84.6693 138.464 87.8055L138.937 88.6867ZM191.608 68.7023C193.2 66.4694 194.796 64.2865 196.394 62.1543L195.594 61.5547C193.991 63.6933 192.391 65.8825 190.794 68.1216L191.608 68.7023ZM196.394 62.1543C215.357 36.8484 234.608 18.7151 252.76 9.18598C270.898 -0.336036 287.886 -1.24642 302.437 7.77912L302.964 6.92931C288.025 -2.33657 270.645 -1.33254 252.295 8.30058C233.959 17.9266 214.602 36.1892 195.594 61.5547L196.394 62.1543ZM137.963 83.2803C150.913 75.3109 176.846 64.8398 196.058 62.3503L195.929 61.3586C176.555 63.8692 150.488 74.3981 137.439 82.4286L137.963 83.2803ZM78.9447 100.291L104.878 85.7909L104.389 84.9181L78.4567 99.4183L78.9447 100.291ZM104.878 85.7909L125.445 74.2909L124.957 73.4181L104.389 84.9181L104.878 85.7909ZM104.803 85.825C107.382 84.8985 109.917 85.6326 112.189 87.2315C114.466 88.8337 116.421 91.2705 117.768 93.6044L118.634 93.1046C117.239 90.6867 115.194 88.1235 112.764 86.4137C110.33 84.7005 107.453 83.8104 104.464 84.8839L104.803 85.825ZM117.768 93.6044C122.655 102.076 126.933 110.753 134.551 120.23C142.177 129.717 153.143 140.001 171.43 151.775L171.971 150.934C153.758 139.208 142.878 128.992 135.331 119.604C127.776 110.206 123.554 101.633 118.634 93.1046L117.768 93.6044ZM171.456 151.79C208.006 172.318 228.09 177.354 252.201 177.354V176.354C228.311 176.354 208.396 171.391 171.946 150.919L171.456 151.79ZM252.201 177.354C262.356 177.354 270.98 180.326 277.058 185.668C283.129 191.003 286.701 198.737 286.701 208.354H287.701C287.701 198.472 284.022 190.456 277.718 184.916C271.421 179.383 262.546 176.354 252.201 176.354V177.354ZM286.701 208.354V287.854H287.701V208.354H286.701ZM311.966 284.278C316.131 281.675 318.201 277.004 318.201 272.854H317.201C317.201 276.705 315.271 281.034 311.436 283.43L311.966 284.278ZM318.201 272.854V250.354H317.201V272.854H318.201ZM267.924 306.302L281.924 299.302L281.477 298.407L267.477 305.407L267.924 306.302ZM281.924 299.302L311.924 284.302L311.477 283.407L281.477 298.407L281.924 299.302ZM286.701 287.854C286.701 290.012 286.051 292.335 285.055 294.29C284.052 296.259 282.74 297.776 281.477 298.407L281.924 299.302C283.461 298.533 284.899 296.8 285.946 294.744C287 292.674 287.701 290.197 287.701 287.854H286.701ZM202.267 160.35L209.767 159.35L209.635 158.359L202.135 159.359L202.267 160.35ZM210.18 158.997C210.377 158.332 210.576 157.666 210.777 156.998L209.819 156.711C209.618 157.379 209.419 158.047 209.221 158.712L210.18 158.997ZM210.062 157.295C218.525 161.828 235.596 167.85 254.174 168.854L254.228 167.855C235.805 166.859 218.876 160.881 210.534 156.414L210.062 157.295ZM254.201 168.854C264.213 168.854 279.124 168.254 288.721 167.854L288.68 166.855C279.077 167.255 264.188 167.854 254.201 167.854V168.854ZM288.721 167.854C297.789 167.476 304.644 171.511 309.372 177.44C314.112 183.382 316.708 191.223 317.202 198.389L318.199 198.32C317.694 190.986 315.04 182.942 310.154 176.816C305.257 170.677 298.112 166.462 288.68 166.855L288.721 167.854ZM317.529 249.885L302.529 255.385L302.873 256.324L317.873 250.824L317.529 249.885ZM302.543 255.38C301.105 255.859 299.102 256.083 297.494 255.509C296.701 255.226 296.014 254.753 295.521 254.027C295.026 253.299 294.701 252.278 294.701 250.854H293.701C293.701 252.431 294.063 253.66 294.693 254.589C295.325 255.518 296.2 256.108 297.158 256.45C299.05 257.126 301.297 256.85 302.859 256.329L302.543 255.38ZM294.701 250.854V213.854H293.701V250.854H294.701ZM294.701 213.854C294.701 212.085 295.199 210.628 296.163 209.342C297.136 208.044 298.602 206.898 300.571 205.79C304.525 203.566 310.343 201.585 317.873 198.824L317.529 197.885C310.058 200.624 304.126 202.643 300.081 204.919C298.05 206.061 296.453 207.29 295.363 208.742C294.265 210.206 293.701 211.874 293.701 213.854H294.701ZM317.859 250.829C342.677 242.556 360.001 230.765 371.127 218.947C382.24 207.143 387.201 195.277 387.201 186.854H386.201C386.201 194.932 381.411 206.566 370.399 218.262C359.4 229.944 342.224 241.653 317.543 249.88L317.859 250.829ZM387.201 140.354C387.201 131.591 386.702 123.638 383.604 115.735C380.503 107.824 374.817 100.009 364.52 91.4696L363.882 92.2394C374.084 100.7 379.648 108.385 382.673 116.099C385.7 123.821 386.201 131.618 386.201 140.354H387.201ZM317.873 198.824C327.646 195.24 339.429 189.976 350.339 183.223C361.243 176.474 371.312 168.215 377.618 158.629L376.783 158.08C370.59 167.494 360.658 175.66 349.813 182.373C338.973 189.082 327.255 194.319 317.529 197.885L317.873 198.824ZM294.701 213.854C294.701 213.56 294.82 213.228 295.114 212.846C295.41 212.463 295.861 212.057 296.471 211.632C297.691 210.781 299.464 209.906 301.642 209.004C305.996 207.2 311.845 205.333 317.859 203.329L317.543 202.38C311.556 204.376 305.656 206.259 301.259 208.08C299.063 208.99 297.21 209.897 295.899 210.812C295.243 211.269 294.703 211.742 294.322 212.236C293.94 212.731 293.701 213.274 293.701 213.854H294.701ZM387.201 186.854V145.354H386.201V186.854H387.201ZM387.201 145.354V140.354H386.201V145.354H387.201ZM317.859 203.329C329.895 199.317 345.194 192.421 358.495 182.759C371.789 173.102 383.142 160.641 387.184 145.483L386.218 145.226C382.26 160.068 371.112 172.357 357.907 181.95C344.708 191.538 329.507 198.392 317.543 202.38L317.859 203.329ZM210.777 156.998C215.4 141.62 220.991 125.387 227.357 109.541L226.429 109.168C220.051 125.044 214.45 141.306 209.819 156.711L210.777 156.998ZM226.942 109.852C247.036 107.858 277.304 109.478 306.163 116.901C335.037 124.329 362.391 137.538 376.788 158.636L377.614 158.073C363.01 136.671 335.364 123.38 306.412 115.933C277.443 108.481 247.057 106.851 226.843 108.857L226.942 109.852ZM252.211 58.1099C265.283 36.1044 279.811 19.1888 294.895 12.8151L294.506 11.8939C279.107 18.4006 264.441 35.5647 251.351 57.5991L252.211 58.1099ZM294.443 12.7832C303.702 18.3386 313.552 29.3448 321.784 41.5215C330.012 53.692 336.577 66.9607 339.304 76.9857L340.269 76.7233C337.504 66.5577 330.878 53.1876 322.612 40.9614C314.351 28.7412 304.403 17.5927 294.958 11.9257L294.443 12.7832ZM339.304 76.9857C339.682 78.3729 339.985 79.6956 340.209 80.9428L341.193 80.7662C340.963 79.486 340.653 78.1344 340.269 76.7233L339.304 76.9857ZM251.821 58.3529C261.208 57.6087 278.132 59.4716 295.246 62.9694C312.362 66.4674 329.568 71.5801 339.538 77.2884L340.035 76.4206C329.919 70.6289 312.582 65.4916 295.447 61.9896C278.31 58.4874 261.274 56.6003 251.742 57.3561L251.821 58.3529ZM294.886 12.8187L299.886 10.8187L299.515 9.89025L294.515 11.8903L294.886 12.8187ZM299.924 10.8017C301.679 9.92419 305.472 9.80024 312.943 14.2832L313.458 13.4257C305.93 8.90874 301.722 8.78479 299.477 9.90728L299.924 10.8017ZM340.543 81.3288C342.726 82.0568 346.928 84.3987 351.057 87.0263C355.183 89.6516 359.14 92.501 360.847 94.208L361.554 93.5009C359.761 91.708 355.719 88.8074 351.594 86.1827C347.473 83.5603 343.175 81.1522 340.859 80.3802L340.543 81.3288ZM227.357 109.541C233.925 93.1901 241.317 77.2563 249.32 63.1006L248.449 62.6084C240.42 76.8118 233.009 92.7874 226.429 109.168L227.357 109.541ZM249.32 63.1006C250.275 61.4108 251.239 59.7465 252.211 58.1099L251.351 57.5991C250.375 59.2422 249.408 60.9127 248.449 62.6084L249.32 63.1006ZM248.925 63.3529C261.256 62.3591 278.9 64.7828 295.552 68.4987C312.202 72.2143 327.781 77.2037 335.977 81.3017L336.424 80.4073C328.12 76.2553 312.449 71.2447 295.77 67.5227C279.093 63.8012 261.329 61.3499 248.844 62.3561L248.925 63.3529ZM335.977 81.3017C343.975 85.3007 360.52 94.0143 371.887 106.996C377.566 113.482 381.93 121.008 383.309 129.52C384.686 138.023 383.094 147.561 376.772 158.097L377.629 158.612C384.058 147.898 385.715 138.124 384.296 129.36C382.878 120.607 378.398 112.915 372.639 106.338C361.131 93.1947 344.426 84.4083 336.424 80.4073L335.977 81.3017ZM312.953 14.2886C328.542 23.197 339.979 41.1666 347.781 57.9405C355.574 74.6947 359.698 90.1591 360.71 93.9553L361.676 93.6976C360.66 89.8872 356.518 74.3545 348.688 57.5188C340.866 40.7028 329.32 22.4897 313.449 13.4204L312.953 14.2886ZM360.71 93.9554L360.718 93.9834L361.684 93.7256L361.676 93.6976L360.71 93.9554ZM364.676 91.699L364.519 91.2199L363.569 91.531L363.725 92.01L364.676 91.699ZM364.519 91.2199C360.007 77.4307 353.729 58.2398 344.027 41.5628C334.329 24.893 321.154 10.6356 302.801 6.86445L302.6 7.84398C320.537 11.5297 333.518 25.4871 343.163 42.0657C352.803 58.6372 359.052 77.7284 363.569 91.531L364.519 91.2199ZM364.676 91.699C364.624 91.54 364.572 91.3803 364.519 91.2199L363.569 91.531C363.621 91.6914 363.673 91.8511 363.725 92.01L364.676 91.699ZM360.71 93.9553C360.711 93.9594 360.717 93.9796 360.718 93.9833L361.684 93.7257C361.68 93.7108 361.68 93.7123 361.676 93.6976L360.71 93.9553ZM60.9509 120.788L76.4509 129.726L76.9505 128.86L61.4505 119.922L60.9509 120.788ZM47.7007 195.855V156.854H46.7007V195.855H47.7007ZM47.7007 156.854V130.855H46.7007V156.854H47.7007ZM76.4509 129.726L107.77 147.788L108.269 146.921L76.9505 128.86L76.4509 129.726ZM63.9512 222.922C57.5372 219.209 52.2417 211.736 49.5676 204.677L48.6325 205.032C51.3608 212.233 56.779 219.925 63.4502 223.787L63.9512 222.922ZM49.5676 204.677C48.3607 201.492 47.7007 198.423 47.7007 195.855H46.7007C46.7007 198.579 47.3974 201.771 48.6325 205.032L49.5676 204.677ZM108.269 248.459L63.9503 222.921L63.4511 223.788L107.77 249.325L108.269 248.459ZM107.77 147.788L171.451 184.512L171.95 183.645L108.269 146.921L107.77 147.788ZM171.451 184.512L204.009 203.288L204.509 202.421L171.95 183.645L171.451 184.512ZM138.95 266.138L108.269 248.459L107.77 249.325L138.451 267.004L138.95 266.138ZM151.45 273.341L138.95 266.138L138.451 267.004L150.951 274.207L151.45 273.341ZM204.009 203.288L213.98 209.038L214.48 208.171L204.509 202.421L204.009 203.288ZM213.98 209.038L223.951 214.788L224.45 213.922L214.48 208.171L213.98 209.038ZM223.928 214.774C232.153 220.12 237.657 230.317 239.237 236.97L240.21 236.739C238.585 229.899 232.962 219.453 224.473 213.935L223.928 214.774ZM239.237 236.97C239.546 238.272 239.701 239.42 239.701 240.355H240.701C240.701 239.318 240.531 238.09 240.21 236.739L239.237 236.97ZM183.95 292.068L151.45 273.341L150.951 274.207L183.451 292.934L183.95 292.068ZM227.95 317.421L197.45 299.847L196.951 300.713L227.451 318.288L227.95 317.421ZM197.45 299.847L183.95 292.068L183.451 292.934L196.951 300.713L197.45 299.847ZM239.701 240.355V255.854H240.701V240.355H239.701ZM239.701 255.854V305.854H240.701V255.854H239.701ZM161.535 194.606L171.452 200.289L171.949 199.421L162.032 193.738L161.535 194.606ZM171.949 191.421L167.061 188.62L166.564 189.487L171.452 192.289L171.949 191.421ZM162.032 193.738L154.495 189.419L153.998 190.287L161.535 194.606L162.032 193.738ZM132.135 176.606L127.449 173.921L126.952 174.789L131.637 177.473L132.135 176.606ZM154.495 189.419L132.135 176.606L131.637 177.473L153.998 190.287L154.495 189.419ZM141.458 175.101L163.541 187.755L164.038 186.887L141.955 174.233L141.458 175.101ZM126.952 166.789L141.458 175.101L141.955 174.233L127.449 165.921L126.952 166.789ZM163.541 187.755L166.564 189.487L167.061 188.62L164.038 186.887L163.541 187.755Z" fill="#393939"/>
</g>
<defs>
<filter id="filter0_d_118_4986" x="0.499268" y="0.5" width="411.701" height="468.672" filterUnits="userSpaceOnUse" color-interpolation-filters="sRGB">
<feFlood flood-opacity="0" result="BackgroundImageFix"/>
<feColorMatrix in="SourceAlpha" type="matrix" values="0 0 0 0 0 0 0 0 0 0 0 0 0 0 0 0 0 0 127 0" result="hardAlpha"/>
<feOffset dx="20" dy="5"/>
<feGaussianBlur stdDeviation="2.5"/>
<feComposite in2="hardAlpha" operator="out"/>
<feColorMatrix type="matrix" values="0 0 0 0 0 0 0 0 0 0 0 0 0 0 0 0 0 0 0.1 0"/>
<feBlend mode="normal" in2="BackgroundImageFix" result="effect1_dropShadow_118_4986"/>
<feBlend mode="normal" in="SourceGraphic" in2="effect1_dropShadow_118_4986" result="shape"/>
</filter>
<linearGradient id="paint0_linear_118_4986" x1="-23" y1="94" x2="254" y2="287" gradientUnits="userSpaceOnUse">
<stop stop-color="#FDD82A"/>
<stop offset="0.853654" stop-color="#FFF4BE"/>
</linearGradient>
</defs>
</svg>
