<svg width="80" height="80" viewBox="0 0 80 80" fill="none" xmlns="http://www.w3.org/2000/svg">
<path d="M15.1666 79.4295C14.8381 78.444 14.7724 75.0737 17.1376 69.4761C16.3821 69.3119 15.3243 68.2541 17.1376 65.3371C17.269 65.3371 17.6501 64.7261 18.1231 62.2821C18.7144 59.2271 21.2766 57.059 21.6708 55.4822C22.065 53.9054 21.4737 48.6824 22.952 45.8245C23.0505 45.7259 21.6708 46.0216 22.4592 42.7695C22.1636 42.1453 21.8876 40.7985 23.1491 40.4043C23.1819 38.8275 23.1885 35.6148 22.952 35.3783C22.8863 34.2943 22.7943 32.1065 22.952 32.0277C23.136 31.9357 24.4371 31.2421 24.9296 31.3112L21.9665 30.4509C22.065 27.6258 22.4001 22.0546 22.952 22.3699C23.8389 22.3371 25.6522 22.2319 25.8099 22.0743C26.007 21.8772 24.1346 7.39054 33.5952 9.46006C34.2522 9.69 35.2311 9.51919 33.8909 6.99634C33.9894 4.33553 35.4479 -0.769279 40.4936 0.0979479C41.1834 0.0322486 43.0953 0.373883 45.2239 2.26601C45.2896 3.08725 45.5196 4.76915 45.9138 4.92682C46.1109 6.20795 46.0123 8.67167 44.0414 8.27747V10.7412L46.308 10.347H47.8847V9.46006L48.0818 9.26296V8.27747H48.476V9.65715H48.8702V9.85425H49.4615V10.2484H66.609V11.2339H67.0032V11.0368H67.2003V8.08038H67.5945V10.6426H67.9886V11.0368H68.1857V10.8397H68.777V12.0223H73.5074V11.8252H73.9016H76.4638V12.0223H76.6609V12.8107H74.0987V13.0078H73.5074V12.6136H68.777V12.8107H66.609V13.5991H59.612L59.1193 14.1904H58.7251V14.7817L56.9512 16.1614V16.9497H56.7541V17.541H56.9512V18.3294C57.2469 18.9864 57.7199 20.3792 57.2469 20.6946C56.6884 20.5632 55.5912 20.9114 55.6701 23.3554C55.473 24.0124 54.6649 25.5629 53.0093 26.5089C52.6151 26.7389 51.7084 27.1791 51.2354 27.1002C50.6441 27.0017 45.5196 25.1293 44.1399 24.0452C44.0742 24.5708 43.864 25.6614 43.5486 25.8191C44.1399 26.1476 45.3422 26.982 45.421 27.6915C45.421 30.0238 45.3225 34.7476 44.9283 34.9841C44.6655 35.674 44.0611 37.0536 43.7457 37.0536C43.1544 36.8237 41.9718 36.3835 41.9718 36.4623C41.939 36.7251 41.8142 37.2507 41.5776 37.2507C41.7419 38.072 42.0704 39.7342 42.0704 39.813C43.253 40.9299 45.697 43.6367 46.0123 45.5288C47.0307 47.6312 49.0279 51.9345 48.8702 52.3287C49.2644 52.5258 50.0331 53.3733 49.9543 55.1866C49.9214 57.2889 49.7769 61.5725 49.4615 61.8879C49.363 62.6434 49.225 64.391 49.4615 65.3371V67.0124C49.1987 67.5051 48.7126 69.0622 48.8702 71.3485C49.0673 72.1698 49.6389 73.8319 50.3485 73.9108C50.9726 74.6663 52.3786 76.138 53.0093 75.9803C54.5203 76.5716 56.7344 77.9513 53.502 78.7397C51.6296 78.7397 47.8847 78.6805 47.8847 78.444C47.3263 78.0827 45.8152 77.9513 43.4501 78.0498C42.8916 77.8199 42.2281 76.5125 44.0414 73.1224C44.0742 71.4799 44.0414 68.1556 43.6472 67.9979C43.3187 68.2278 42.6025 66.7759 42.366 59.1285C42.8916 58.6358 43.6472 57.0984 42.4646 54.8909C39.2125 54.8909 38.6212 52.3287 35.8618 48.3867C35.3691 48.6495 34.1274 48.6035 33.1025 46.3172C32.7411 47.1713 31.8608 48.9583 31.23 49.2737C30.5074 50.8176 29.1408 54.1617 29.4562 55.1866C29.2591 55.7779 28.6875 56.9013 27.9779 56.6648C27.8137 57.4532 27.229 59.0103 26.2041 58.9314C25.777 59.9169 25.0806 62.0455 25.7113 62.6763C24.7258 65.5342 22.5381 71.0726 21.6708 70.363C20.981 71.7427 19.759 74.8371 20.3897 76.1774C20.6525 77.3271 21.0795 79.666 20.6854 79.8237C18.8458 80.0208 15.1666 80.2179 15.1666 79.4295Z" fill="white"/>
</svg>
