<svg width="342" height="349" viewBox="0 0 342 349" fill="none" xmlns="http://www.w3.org/2000/svg">
<path d="M341.169 122.076C341.169 126.982 339.747 131.818 336.973 135.871L331.142 144.689L331.711 146.111C332.636 148.742 333.133 151.516 333.133 154.36V176.333L333.916 177.116C338.538 181.809 341.169 188.067 341.169 194.68V307.747C341.169 317.987 336.547 327.444 328.511 333.702C320.476 340.031 307.889 342.236 298.004 339.036L288.902 335.836C283.071 338.822 276.031 340.671 267.853 340.671C260.316 340.671 253.773 339.107 248.227 336.476H247.16C241.613 339.107 235.071 340.671 227.533 340.671H204.564C198.52 344.938 189.987 348.778 179.036 348.778H146.751C136.796 348.778 128.191 345.293 121.578 340.671H41.8622C19.1777 340.671 0.831055 322.324 0.831055 299.64V259.32C0.831055 248.44 4.17328 239.622 8.86661 233.009V229.098C4.17328 222.484 0.831055 213.667 0.831055 202.787V178.609C0.831055 167.729 4.17328 158.911 8.86661 152.298V148.387C4.17328 141.773 0.831055 132.956 0.831055 122.076V41.3644C0.831055 18.68 19.1777 0.333328 41.8622 0.333328H90.2888C99.7466 0.333328 107.569 2.89333 113.827 6.59111H115.178C121.436 2.89333 129.258 0.333328 138.716 0.333328H179.036C189.062 0.333328 197.382 3.24888 203.782 7.37333H205.062C214.307 2.53777 224.973 0.973329 235.498 3.03555L252.636 6.44888C258.822 2.82221 266.644 0.333328 275.96 0.333328H300.138C322.822 0.333328 341.169 18.68 341.169 41.3644V122.076V122.076ZM195.818 105.862C193.827 106.858 192.476 108.849 192.333 111.053C192.191 113.258 193.258 115.391 195.178 116.6L233.08 141.489C234.147 142.2 235.356 142.556 236.564 142.556C237.347 142.556 238.129 142.413 238.84 142.129C240.76 141.418 242.182 139.782 242.68 137.862L249.009 112.973C249.649 110.413 248.653 107.711 246.378 106.289L227.462 93.8444C225.542 92.5644 223.124 92.4222 221.133 93.4178L195.818 105.862ZM146.111 242.893C147.96 241.969 149.24 240.191 149.596 238.129C149.88 236.138 149.24 234.076 147.818 232.582L109.418 194.182C107.853 192.689 105.72 192.049 103.587 192.476C101.453 192.902 99.7466 194.324 98.8933 196.316L86.0933 228.316C85.0266 231.018 85.88 234.076 88.2266 235.853L113.827 255.053C114.964 255.907 116.316 256.333 117.667 256.333C118.662 256.333 119.658 256.12 120.511 255.693L146.111 242.893ZM256.049 201.862C256.902 198.804 255.693 195.604 252.92 193.898L103.373 86.7333C101.24 85.4533 98.6088 85.3111 96.4044 86.4489L82.1822 93.56C80.1911 94.5556 78.7688 96.4044 78.3422 98.5378C77.9155 100.671 78.5555 102.947 80.0488 104.582L201.151 253.987C202.502 255.48 204.422 256.333 206.484 256.333H234.929C238.129 256.333 240.902 254.271 241.827 251.213L256.049 201.862Z" fill="white"/>
</svg>
