<svg width="690" height="690" viewBox="0 0 690 690" fill="none" xmlns="http://www.w3.org/2000/svg">
<rect x="40" y="40" width="610" height="610" rx="305" stroke="white" stroke-width="80"/>
<path d="M438.636 571.221C411.795 585.079 367.431 588.794 343.013 589.012C340.289 589.036 338.416 586.349 339.306 583.774L487.01 156.311C487.8 154.027 490.418 152.968 492.455 154.268C512.522 167.076 544.647 205.169 557.986 225.899C558.64 226.915 558.77 228.163 558.374 229.305L440.509 569.033C440.182 569.977 439.523 570.763 438.636 571.221Z" fill="white"/>
<path d="M232.78 135.692L282.09 297.194C283.25 300.994 288.641 300.961 289.755 297.147L346.808 101.868C347.232 100.416 348.433 99.3195 349.929 99.0998C378.403 94.918 419.882 106.024 437.79 115.9C439.414 116.796 440.07 118.738 439.46 120.489L281.532 574.533C280.926 576.275 279.207 577.384 277.377 577.154C242.678 572.798 210.455 551.761 195.578 538.853C194.308 537.751 193.928 535.967 194.572 534.414L241.398 421.453C241.785 420.519 241.804 419.474 241.452 418.526L157.694 193.366C157.257 192.191 157.392 190.876 158.086 189.831C177.145 161.122 209.956 141.261 227.495 133.239C229.635 132.26 232.093 133.441 232.78 135.692Z" fill="white"/>
</svg>
